<?xml version="1.0" encoding="UTF-8"?>
<svg xmlns="http://www.w3.org/2000/svg" version="1.1" width="500" height="500" viewBox="0 0 500 500"><rect x="0" y="0" width="500" height="500" fill="#ffffff"/><g transform="scale(18.519)"><g transform="translate(1,1)"><g><g transform="translate(3.5,3.5)"><path fill-rule="evenodd" d="M-3.5 -3.5L3.5 -3.5L3.5 3.5L-3.5 3.5ZM-2.5 -2.5L-2.5 2.5L2.5 2.5L2.5 -2.5Z" fill="#000000"/><path fill-rule="evenodd" d="M-1.5 -1.5L1.5 -1.5L1.5 1.5L-1.5 1.5Z" fill="#000000"/></g></g><g><g transform="translate(21.5,3.5)"><g transform="rotate(90)"><path fill-rule="evenodd" d="M-3.5 -3.5L3.5 -3.5L3.5 3.5L-3.5 3.5ZM-2.5 -2.5L-2.5 2.5L2.5 2.5L2.5 -2.5Z" fill="#000000"/><path fill-rule="evenodd" d="M-1.5 -1.5L1.5 -1.5L1.5 1.5L-1.5 1.5Z" fill="#000000"/></g></g></g><g><g transform="translate(3.5,21.5)"><g transform="rotate(-90)"><path fill-rule="evenodd" d="M-3.5 -3.5L3.5 -3.5L3.5 3.5L-3.5 3.5ZM-2.5 -2.5L-2.5 2.5L2.5 2.5L2.5 -2.5Z" fill="#000000"/><path fill-rule="evenodd" d="M-1.5 -1.5L1.5 -1.5L1.5 1.5L-1.5 1.5Z" fill="#000000"/></g></g></g><path fill-rule="evenodd" d="M8 0L8 1L9 1L9 2L8 2L8 3L9 3L9 2L10 2L10 4L9 4L9 5L8 5L8 7L9 7L9 5L11 5L11 6L10 6L10 7L11 7L11 6L12 6L12 7L13 7L13 8L12 8L12 9L11 9L11 8L9 8L9 9L10 9L10 10L8 10L8 8L6 8L6 9L3 9L3 8L2 8L2 9L1 9L1 8L0 8L0 11L1 11L1 14L0 14L0 15L2 15L2 14L3 14L3 15L4 15L4 17L5 17L5 15L7 15L7 16L6 16L6 17L7 17L7 16L8 16L8 19L9 19L9 22L8 22L8 23L10 23L10 25L12 25L12 24L13 24L13 23L14 23L14 22L12 22L12 21L13 21L13 20L14 20L14 21L15 21L15 20L16 20L16 23L15 23L15 24L14 24L14 25L18 25L18 23L17 23L17 21L20 21L20 22L19 22L19 25L21 25L21 23L20 23L20 22L22 22L22 21L23 21L23 24L24 24L24 25L25 25L25 22L24 22L24 20L25 20L25 18L24 18L24 20L21 20L21 18L22 18L22 17L25 17L25 16L24 16L24 14L23 14L23 16L22 16L22 15L21 15L21 16L19 16L19 15L20 15L20 14L22 14L22 13L23 13L23 12L22 12L22 11L21 11L21 13L19 13L19 11L20 11L20 10L22 10L22 9L23 9L23 8L22 8L22 9L20 9L20 8L19 8L19 9L17 9L17 6L16 6L16 7L15 7L15 6L14 6L14 4L15 4L15 5L17 5L17 3L16 3L16 4L15 4L15 1L14 1L14 0ZM10 1L10 2L11 2L11 4L12 4L12 5L13 5L13 4L14 4L14 3L13 3L13 4L12 4L12 2L13 2L13 1L12 1L12 2L11 2L11 1ZM13 6L13 7L14 7L14 8L13 8L13 10L12 10L12 11L14 11L14 12L13 12L13 13L12 13L12 12L11 12L11 14L10 14L10 13L9 13L9 12L10 12L10 11L11 11L11 10L10 10L10 11L6 11L6 10L7 10L7 9L6 9L6 10L5 10L5 11L6 11L6 12L7 12L7 13L6 13L6 14L7 14L7 13L9 13L9 14L10 14L10 15L9 15L9 17L10 17L10 18L9 18L9 19L10 19L10 18L11 18L11 16L12 16L12 17L13 17L13 18L12 18L12 20L13 20L13 18L14 18L14 20L15 20L15 19L16 19L16 17L15 17L15 16L14 16L14 15L16 15L16 16L18 16L18 14L17 14L17 15L16 15L16 14L15 14L15 10L16 10L16 11L18 11L18 10L17 10L17 9L15 9L15 7L14 7L14 6ZM24 8L24 9L25 9L25 8ZM2 9L2 10L1 10L1 11L2 11L2 10L3 10L3 11L4 11L4 10L3 10L3 9ZM14 9L14 10L15 10L15 9ZM23 10L23 11L24 11L24 13L25 13L25 11L24 11L24 10ZM2 12L2 13L4 13L4 15L5 15L5 13L4 13L4 12ZM11 14L11 15L10 15L10 16L11 16L11 15L13 15L13 14ZM0 16L0 17L3 17L3 16ZM13 16L13 17L14 17L14 16ZM17 17L17 20L20 20L20 17ZM18 18L18 19L19 19L19 18ZM10 20L10 21L11 21L11 20ZM11 22L11 24L12 24L12 22ZM16 23L16 24L17 24L17 23ZM8 24L8 25L9 25L9 24Z" fill="#000000"/></g></g></svg>
